<svg width="52" height="52" viewBox="0 0 52 52" fill="none" xmlns="http://www.w3.org/2000/svg">
<path d="M25.6 50.7C39.4623 50.7 50.7 39.4623 50.7 25.6C50.7 11.7377 39.4623 0.5 25.6 0.5C11.7377 0.5 0.5 11.7377 0.5 25.6C0.5 39.4623 11.7377 50.7 25.6 50.7Z" fill="white" stroke="black"/>
<path d="M44.7001 25.8C44.7001 26.9 44.3001 27.8 43.6001 28.5C42.9001 29.2 42.0001 29.6 40.9001 29.6H19.0001L24.0001 35C25.4001 36.5 25.4001 39 23.8001 40.4C23.1001 41.1 22.1001 41.4 21.2001 41.4C20.2001 41.4 19.2001 41 18.4001 40.2L7.2001 28.3C7.2001 28.2 7.1001 28.1 7.0001 28C6.4001 27.3 6.1001 26.4 6.1001 25.6C6.1001 24.6 6.5001 23.6 7.2001 22.9L18.8001 11.3C20.3001 9.79999 22.7001 9.79999 24.2001 11.3C25.0001 12 25.4001 13 25.4001 14C25.4001 15 25.0001 16 24.3001 16.7L19.0001 22H40.9001C43.0001 22 44.7001 23.7 44.7001 25.8Z" fill="url(#paint0_linear_33_2)" stroke="black"/>
<defs>
<linearGradient id="paint0_linear_33_2" x1="6.1275" y1="25.8103" x2="44.7006" y2="25.8103" gradientUnits="userSpaceOnUse">
<stop stop-color="#EB47CB"/>
<stop offset="0.9754" stop-color="#FBD23C"/>
<stop offset="1" stop-color="#FBD538"/>
</linearGradient>
</defs>
</svg>
